<svg id="Layer_1" data-name="Layer 1" xmlns="http://www.w3.org/2000/svg" viewBox="0 0 48 48"><title>U-Booker_Icons_06_02</title><path d="M9,23c-3.37,0-7-2.29-7-6a6.15,6.15,0,0,1,6-6v2a4.16,4.16,0,0,0-4,4c0,2.47,2.6,4,5,4Z"/><path d="M39,23V21c4.48,0,5-2.28,5-4a4.16,4.16,0,0,0-4-4V11a6.15,6.15,0,0,1,6,6C46,20.87,43.51,23,39,23Z"/><path d="M2,48H0c0-9.21,6-16.29,11.91-20.12C9.32,25.05,7,21.66,7,16,7,7.18,12.83,0,20,0V2C13.93,2,9,8.28,9,16c0,5.54,2.46,8.55,5.21,11.4l.88.92L14,29C6.71,33.18,2,40.65,2,48Z"/><path d="M48,48H46c0-7.35-4.71-14.82-12-19l-1.1-.64.88-.92C36.54,24.55,39,21.54,39,16,39,8.28,34.07,2,28,2V0c7.17,0,13,7.18,13,16,0,5.66-2.32,9.05-4.91,11.88C42,31.71,48,38.79,48,48Z"/><path d="M27,27H21V25h6a16,16,0,0,0,11.9-5.3L40.38,21A18,18,0,0,1,27,27Z"/><path d="M21,27a4,4,0,1,1,4-4A4,4,0,0,1,21,27Zm0-6a2,2,0,1,0,2,2A2,2,0,0,0,21,21Z"/></svg>