<?xml version="1.0" encoding="utf-8"?>
<!-- Generator: Adobe Illustrator 18.0.0, SVG Export Plug-In . SVG Version: 6.00 Build 0)  -->
<!DOCTYPE svg PUBLIC "-//W3C//DTD SVG 1.1//EN" "http://www.w3.org/Graphics/SVG/1.1/DTD/svg11.dtd">
<svg version="1.1" id="Layer_1" xmlns="http://www.w3.org/2000/svg" xmlns:xlink="http://www.w3.org/1999/xlink" x="0px" y="0px"
	 viewBox="0 0 160 19.9" enable-background="new 0 0 160 19.9" xml:space="preserve">
<rect id="XMLID_3962_" x="127.2" y="17.7" fill="#010101" width="10" height="1.8"/>
<path id="XMLID_3856_" fill="#010101" d="M13.9,11.2c0,3.7-2.2,6.5-5.4,6.7v1.9c4.3-0.1,7.2-3.6,7.2-8.5v-11h-1.8V11.2z"/>
<path id="XMLID_3826_" fill="#010101" d="M1.8,11.2v-11H0v11c0,4.9,2.9,8.4,7.2,8.5v-1.9C4,17.7,1.8,14.9,1.8,11.2z"/>
<polygon id="XMLID_3483_" fill="#010101" points="23.7,19.5 25.5,19.5 25.5,17.7 25.5,17.7 25.5,10.7 25.5,10.7 25.5,8.9 25.5,8.9 
	25.5,2.2 25.5,2.2 25.5,0.4 23.7,0.4 "/>
<path id="XMLID_2601_" fill="#010101" d="M34.5,9.6c2-0.6,3.1-2.3,3.1-4.4c0-2.9-2.2-4.8-5.7-4.8h-5.1v1.8h4.9
	c2.5,0,4.1,1.3,4.1,3.3c0,2.2-1.6,3.5-4.4,3.5h-4.6v1.8H32c2.9,0,4.6,1.2,4.6,3.4c0,2.1-1.8,3.7-4.7,3.7h-5.2v1.8H32
	c3.9,0,6.4-2.1,6.4-5.2C38.5,11.9,37.1,10.1,34.5,9.6z"/>
<path id="XMLID_2567_" fill="#010101" d="M56.6,0v1.9c4,0.1,7,3.7,7,8.1s-3.1,7.9-7,8.1v1.9c4.9-0.1,8.9-4.5,8.9-9.9
	S61.5,0.1,56.6,0z"/>
<path id="XMLID_2564_" fill="#010101" d="M46.4,9.9c0,5.4,3.9,9.8,8.9,9.9V18c-4-0.1-7.1-3.7-7.1-8.1s3.1-8,7.1-8.1V0
	C50.4,0.1,46.4,4.5,46.4,9.9z"/>
<path id="XMLID_2560_" fill="#010101" d="M83.6,0v1.9c4,0.1,7,3.7,7,8.1s-3.1,7.9-7,8.1v1.9c4.9-0.1,8.9-4.5,8.9-9.9
	S88.5,0.1,83.6,0z"/>
<path id="XMLID_2559_" fill="#010101" d="M73.4,9.9c0,5.4,3.9,9.8,8.9,9.9V18c-4-0.1-7.1-3.7-7.1-8.1s3.1-8,7.1-8.1V0
	C77.4,0.1,73.4,4.5,73.4,9.9z"/>
<rect id="XMLID_2558_" x="100.4" y="0.4" fill="#010101" width="1.8" height="19.1"/>
<polygon id="XMLID_2557_" fill="#010101" points="113,0.4 103.5,11.2 103.5,14 115.3,0.4 "/>
<polygon id="XMLID_2556_" fill="#010101" points="116.3,19.5 108.5,9.9 107.3,11.4 114,19.5 "/>
<rect id="XMLID_2555_" x="127.2" y="9.1" fill="#010101" width="9" height="1.9"/>
<rect id="XMLID_2554_" x="124.3" y="0.4" fill="#010101" width="1.8" height="19.1"/>
<rect id="XMLID_2553_" x="127.2" y="0.4" fill="#010101" width="10" height="1.8"/>
<rect id="XMLID_2552_" x="145.2" y="0.4" fill="#010101" width="1.8" height="19.1"/>
<path id="XMLID_2551_" fill="#010101" d="M154.3,12.4L154.3,12.4c0.2,0,0.3-0.1,0.4-0.1c0.1,0,0.4-0.1,0.4-0.1c0.1,0,0.1,0,0.2-0.1
	c2.3-0.9,3.7-2.9,3.7-5.6c0-3.8-2.7-6.1-6.7-6.1h-4.2v1.8h4.2c2.9,0,4.9,1.6,4.9,4.3c0,2.6-2,4.2-4.9,4.2h-4.2v1.8l4.6,0
	C153.3,12.5,153.9,12.5,154.3,12.4z"/>
<path id="XMLID_2550_" fill="#010101" d="M157.7,19.5h2.3l-4.9-6.2c-0.1,0-0.2,0-0.2,0.1c-0.1,0-0.3,0.1-0.4,0.1l0,0
	c-0.4,0.1-0.9,0.2-1.4,0.2L157.7,19.5z"/>
</svg>
