<?xml version="1.0" encoding="utf-8"?>
<!-- Generator: Adobe Illustrator 18.0.0, SVG Export Plug-In . SVG Version: 6.00 Build 0)  -->
<!DOCTYPE svg PUBLIC "-//W3C//DTD SVG 1.1//EN" "http://www.w3.org/Graphics/SVG/1.1/DTD/svg11.dtd">
<svg version="1.1" id="Layer_1" xmlns="http://www.w3.org/2000/svg" xmlns:xlink="http://www.w3.org/1999/xlink" x="0px" y="0px"
	 viewBox="0 0 65 65" enable-background="new 0 0 65 65" xml:space="preserve">
<g id="XMLID_1699_">
	<g id="XMLID_1701_">
		<circle id="XMLID_1707_" opacity="1" fill="#f75011" cx="32.5" cy="32.5" r="32.5"/>
		<path id="XMLID_1702_" fill="#FFFFFF" d="M32.5,16.5c-8.3,0-15,5.8-15,13c0,7.2,6.7,13.1,15,13.1c0.5,0,1,0,1.4-0.1
			c0,3.4-3.9,6.1-3.9,6.1c9.8-3.3,13.7-9.1,15.1-11.9c1.5-2.1,2.5-4.5,2.5-7.1C47.5,22.3,40.8,16.5,32.5,16.5z M24.4,31.4
			c-1.1,0-1.9-0.9-1.9-1.9c0-1.1,0.9-1.9,1.9-1.9c1.1,0,1.9,0.9,1.9,1.9C26.3,30.6,25.5,31.4,24.4,31.4z M32.5,31.4
			c-1.1,0-1.9-0.9-1.9-1.9c0-1.1,0.9-1.9,1.9-1.9c1.1,0,1.9,0.9,1.9,1.9C34.4,30.6,33.6,31.4,32.5,31.4z M40.6,31.4
			c-1.1,0-1.9-0.9-1.9-1.9c0-1.1,0.9-1.9,1.9-1.9c1.1,0,1.9,0.9,1.9,1.9C42.5,30.6,41.7,31.4,40.6,31.4z"/>
	</g>
</g>
</svg>
