<?xml version="1.0" encoding="utf-8"?>
<!-- Generator: Adobe Illustrator 18.0.0, SVG Export Plug-In . SVG Version: 6.00 Build 0)  -->
<!DOCTYPE svg PUBLIC "-//W3C//DTD SVG 1.1//EN" "http://www.w3.org/Graphics/SVG/1.1/DTD/svg11.dtd">
<svg version="1.1" id="Layer_1" xmlns="http://www.w3.org/2000/svg" xmlns:xlink="http://www.w3.org/1999/xlink" x="0px" y="0px"
	 viewBox="0 0 30 30" enable-background="new 0 0 30 30" xml:space="preserve">
<path id="XMLID_43_" fill="#010101" d="M15,0C6.7,0,0,6.7,0,15s6.7,15,15,15s15-6.7,15-15S23.3,0,15,0z M17.1,11.1
	c1.1,0,2.2,0,3.2,0c0,1.1,0,2.3,0,3.4c-1.1,0-2.1,0-3.2,0c0,3.5,0,7,0,10.5c-1.5,0-3,0-4.5,0c0-3.5,0-7,0-10.5c-0.9,0-1.9,0-2.9,0
	c0-1.1,0-2.3,0-3.4c1,0,1.9,0,2.9,0c0-0.9,0-1.7,0-2.4c0.1-0.7,0.3-1.3,0.6-1.8c0.7-1,1.7-1.7,3.2-1.8C17.7,5,19,5,20.3,5
	c0,1.1,0,2.3,0,3.4c-0.6,0-1.3,0-1.8,0c-0.6,0-1,0.4-1.2,0.8C17,9.7,17.1,10.4,17.1,11.1z"/>
</svg>
