<?xml version="1.0" encoding="utf-8"?>
<!-- Generator: Adobe Illustrator 18.0.0, SVG Export Plug-In . SVG Version: 6.00 Build 0)  -->
<!DOCTYPE svg PUBLIC "-//W3C//DTD SVG 1.1//EN" "http://www.w3.org/Graphics/SVG/1.1/DTD/svg11.dtd">
<svg version="1.1" id="Layer_1" xmlns="http://www.w3.org/2000/svg" xmlns:xlink="http://www.w3.org/1999/xlink" x="0px" y="0px"
	 viewBox="0 0 30 30" enable-background="new 0 0 30 30" xml:space="preserve">
<path id="XMLID_33_" fill="#010101" d="M15,0C6.7,0,0,6.7,0,15s6.7,15,15,15s15-6.7,15-15S23.3,0,15,0z M10.8,22.6
	c-1.1,0-2.1,0-3.2,0c0-3.4,0-6.7,0-10.1c0,0,0-0.1,0-0.1c1,0,2.1,0,3.1,0C10.8,15.8,10.8,19.2,10.8,22.6z M8.2,10.8
	c-0.5-0.3-0.9-1-0.8-1.8c0.1-0.6,0.5-1.1,1-1.3C8.5,7.5,8.7,7.5,9,7.4c1.2-0.2,2.1,0.7,2.1,1.8C11.1,10.6,9.4,11.6,8.2,10.8z
	 M22.6,22.6c-1.1,0-2.1,0-3.2,0c0-1.1,0-2.3,0-3.6c0-1.5,0.2-3.3-0.8-3.8c-0.5-0.3-1.2-0.2-1.7,0c-1.2,0.5-1,2.1-1,3.9
	c0,1.2,0,2.5,0,3.6c-1,0-2.1,0-3.1,0c0-3.4,0-6.8,0-10.2c1,0,2,0,3,0c0,0.5,0,0.9,0,1.4c0.1-0.1,0.2-0.2,0.2-0.3
	c0.5-0.7,1.5-1.3,2.7-1.3c1.6,0,2.7,0.5,3.2,1.5c0.6,1,0.6,2.5,0.6,4.2C22.6,19.4,22.6,21.1,22.6,22.6z"/>
</svg>
