<?xml version="1.0" encoding="utf-8"?>
<!-- Generator: Adobe Illustrator 18.0.0, SVG Export Plug-In . SVG Version: 6.00 Build 0)  -->
<!DOCTYPE svg PUBLIC "-//W3C//DTD SVG 1.1//EN" "http://www.w3.org/Graphics/SVG/1.1/DTD/svg11.dtd">
<svg version="1.1" id="Layer_1" xmlns="http://www.w3.org/2000/svg" xmlns:xlink="http://www.w3.org/1999/xlink" x="0px" y="0px"
	 viewBox="0 0 241.6 10.8" enable-background="new 0 0 241.6 10.8" xml:space="preserve">
<path id="XMLID_315_" fill="#787879" d="M3.6,2.1v8.2H2.2V2.1H0V0.7h5.8v1.3H3.6z"/>
<path id="XMLID_313_" fill="#787879" d="M10.9,4.4H15V0.7h1.4v9.5H15V5.8h-4.1v4.4H9.5V0.7h1.4V4.4z"/>
<path id="XMLID_311_" fill="#787879" d="M26.3,2.1h-3.8v2.3h3.7v1.3h-3.7v3.2h3.8v1.3h-5.2V0.7h5.2V2.1z"/>
<path id="XMLID_307_" fill="#787879" d="M36.8,10.2V0.1l6.9,7.3V0.7h1.4v10.1l-6.9-7.2v6.7H36.8z"/>
<path id="XMLID_304_" fill="#787879" d="M55.1,2.1h-3.8v2.3H55v1.3h-3.7v3.2h3.8v1.3h-5.2V0.7h5.2V2.1z"/>
<path id="XMLID_299_" fill="#787879" d="M59.8,0.7l2.5,6.4l2.6-6.8l2.5,6.8L70,0.7h1.6l-4.2,10.1l-2.4-6.7l-2.5,6.7l-4-10.1H59.8z"
	/>
<path id="XMLID_282_" fill="#787879" d="M86.1,2.1h-3.3v2.3H86v1.3h-3.2v4.5h-1.4V0.7h4.7V2.1z"/>
<path id="XMLID_279_" fill="#787879" d="M95.1,7.9h-4.1L90,10.2h-1.5l4.7-10.1l4.5,10.1h-1.6L95.1,7.9z M94.5,6.6l-1.4-3.2l-1.5,3.2
	H94.5z"/>
<path id="XMLID_277_" fill="#787879" d="M107.8,1.2v1.7c-0.8-0.7-1.7-1-2.6-1c-1,0-1.8,0.4-2.5,1.1c-0.7,0.7-1,1.6-1,2.6
	c0,1,0.3,1.8,1,2.5s1.5,1,2.5,1c0.5,0,0.9-0.1,1.3-0.2c0.2-0.1,0.4-0.2,0.6-0.3s0.4-0.3,0.7-0.5v1.7c-0.8,0.5-1.7,0.7-2.6,0.7
	c-1.4,0-2.5-0.5-3.5-1.4c-1-1-1.4-2.1-1.4-3.5c0-1.2,0.4-2.3,1.2-3.2c1-1.2,2.3-1.7,3.8-1.7C106.2,0.5,107,0.8,107.8,1.2z"/>
<path id="XMLID_257_" fill="#787879" d="M117.3,2.1h-3.8v2.3h3.7v1.3h-3.7v3.2h3.8v1.3H112V0.7h5.2V2.1z"/>
<path id="XMLID_252_" fill="#787879" d="M127.3,5.4c0-1.3,0.5-2.5,1.5-3.4c1-1,2.2-1.4,3.5-1.4c1.4,0,2.5,0.5,3.5,1.5
	c1,1,1.5,2.1,1.5,3.5c0,1.4-0.5,2.5-1.5,3.5c-1,1-2.2,1.4-3.6,1.4c-1.2,0-2.3-0.4-3.3-1.3C127.8,8.2,127.3,6.9,127.3,5.4z
	 M128.8,5.4c0,1.1,0.4,1.9,1.1,2.6c0.7,0.7,1.5,1,2.4,1c1,0,1.8-0.3,2.5-1c0.7-0.7,1-1.5,1-2.5c0-1-0.3-1.9-1-2.5
	c-0.7-0.7-1.5-1-2.5-1c-1,0-1.8,0.3-2.5,1C129.1,3.6,128.8,4.4,128.8,5.4z"/>
<path id="XMLID_250_" fill="#787879" d="M146.2,2.1h-3.3v2.3h3.2v1.3h-3.2v4.5h-1.4V0.7h4.7V2.1z"/>
<path id="XMLID_248_" fill="#787879" d="M156.1,10.2l2-10.2l3.3,7.4l3.4-7.4l1.8,10.2h-1.5l-0.9-5.7l-2.8,6.2l-2.7-6.2l-1,5.7H156.1
	z"/>
<path id="XMLID_245_" fill="#787879" d="M170.5,5.4c0-1.3,0.5-2.5,1.5-3.4c1-1,2.2-1.4,3.5-1.4c1.4,0,2.5,0.5,3.5,1.5
	c1,1,1.5,2.1,1.5,3.5c0,1.4-0.5,2.5-1.5,3.5c-1,1-2.2,1.4-3.6,1.4c-1.2,0-2.3-0.4-3.3-1.3C171,8.2,170.5,6.9,170.5,5.4z M171.9,5.4
	c0,1.1,0.4,1.9,1.1,2.6c0.7,0.7,1.5,1,2.4,1c1,0,1.8-0.3,2.5-1c0.7-0.7,1-1.5,1-2.5c0-1-0.3-1.9-1-2.5c-0.7-0.7-1.5-1-2.5-1
	c-1,0-1.8,0.3-2.5,1C172.3,3.6,171.9,4.4,171.9,5.4z"/>
<path id="XMLID_240_" fill="#787879" d="M184.6,10.2V0.7h2c1,0,1.7,0.1,2.3,0.3c0.6,0.2,1.1,0.5,1.6,0.9c1,0.9,1.5,2.1,1.5,3.5
	c0,1.5-0.5,2.6-1.5,3.5c-0.5,0.5-1.1,0.8-1.6,0.9c-0.5,0.2-1.3,0.3-2.2,0.3H184.6z M186,8.9h0.6c0.6,0,1.2-0.1,1.6-0.2
	c0.4-0.1,0.8-0.4,1.2-0.7c0.7-0.6,1.1-1.5,1.1-2.5c0-1-0.3-1.9-1-2.5c-0.6-0.6-1.6-0.9-2.8-0.9H186V8.9z"/>
<path id="XMLID_145_" fill="#787879" d="M201.4,2.1h-3.8v2.3h3.7v1.3h-3.7v3.2h3.8v1.3h-5.2V0.7h5.2V2.1z"/>
<path id="XMLID_143_" fill="#787879" d="M207.1,0.7v8.2h2.8v1.3h-4.2V0.7H207.1z"/>
<path id="XMLID_140_" fill="#787879" d="M215,0.7v9.5h-1.4V0.7H215z"/>
<path id="XMLID_138_" fill="#787879" d="M219.7,10.2V0.1l6.9,7.3V0.7h1.4v10.1l-6.9-7.2v6.7H219.7z"/>
<path id="XMLID_136_" fill="#787879" d="M237.7,5.3h3.9v0.3c0,0.7-0.1,1.3-0.3,1.9c-0.2,0.5-0.4,1-0.8,1.4c-0.9,1-2,1.5-3.4,1.5
	c-1.3,0-2.5-0.5-3.4-1.4c-0.9-1-1.4-2.1-1.4-3.5c0-1.4,0.5-2.5,1.4-3.5c1-1,2.1-1.4,3.5-1.4c0.7,0,1.4,0.2,2.1,0.5
	c0.6,0.3,1.2,0.8,1.8,1.5l-1,1c-0.8-1-1.7-1.6-2.9-1.6c-1,0-1.8,0.3-2.5,1c-0.7,0.7-1,1.5-1,2.6c0,1.1,0.4,1.9,1.1,2.6
	c0.7,0.6,1.5,1,2.3,1c0.7,0,1.3-0.2,1.9-0.7c0.6-0.5,0.9-1.1,0.9-1.7h-2.4V5.3z"/>
</svg>
