<svg xmlns="http://www.w3.org/2000/svg" width="46" height="44">
  <path fill="#2EA7E2" fill-rule="evenodd" d="M39.7 9.85c1.9-1.15 3.36-3 4.05-5.17C41.98 5.75 40 6.53 37.9 6.95 36.2 5.13 33.8 4 31.16 4c-5.1 0-9.24 4.18-9.24 9.34 0 .73.08 1.44.24 2.13-7.67-.4-14.47-4.1-19.03-9.76-.8 1.4-1.25 3-1.25 4.7 0 3.26 1.63 6.1 4.1 7.8-1.5-.05-2.93-.47-4.17-1.17v.13c0 4.52 3.2 8.3 7.4 9.16-.74.2-1.56.33-2.4.33-.6 0-1.17-.07-1.73-.17 1.17 3.7 4.58 6.4 8.62 6.5-3.17 2.5-7.15 3.98-11.47 3.98-.75 0-1.48-.04-2.2-.13C4.1 39.46 8.93 41 14.15 41c16.98 0 26.27-14.23 26.27-26.58 0-.4 0-.8-.02-1.2 1.8-1.32 3.36-2.97 4.6-4.84-1.66.74-3.44 1.25-5.3 1.47z"/>
</svg>
